<svg width="20" height="20" viewBox="0 0 20 20" fill="none" xmlns="http://www.w3.org/2000/svg">
<path fill-rule="evenodd" clip-rule="evenodd" d="M3.125 1.25C2.77982 1.25 2.5 1.52982 2.5 1.875V18.125C2.5 18.4702 2.77982 18.75 3.125 18.75H16.875C17.2202 18.75 17.5 18.4702 17.5 18.125V1.875C17.5 1.52982 17.2202 1.25 16.875 1.25H3.125ZM1.25 1.875C1.25 0.839466 2.08947 0 3.125 0H16.875C17.9105 0 18.75 0.839466 18.75 1.875V18.125C18.75 19.1605 17.9105 20 16.875 20H3.125C2.08947 20 1.25 19.1605 1.25 18.125V1.875Z" fill="#2D3748"/>
<path fill-rule="evenodd" clip-rule="evenodd" d="M3.75 3.125C3.75 2.77982 4.02982 2.5 4.375 2.5H15.625C15.9702 2.5 16.25 2.77982 16.25 3.125V6.875C16.25 7.22018 15.9702 7.5 15.625 7.5H4.375C4.02982 7.5 3.75 7.22018 3.75 6.875V3.125ZM5 3.75V6.25H15V3.75H5Z" fill="#2D3748"/>
<path fill-rule="evenodd" clip-rule="evenodd" d="M3.75 9.375C3.75 9.02982 4.02982 8.75 4.375 8.75H9.375C9.72018 8.75 10 9.02982 10 9.375V11.875C10 12.2202 9.72018 12.5 9.375 12.5H4.375C4.02982 12.5 3.75 12.2202 3.75 11.875V9.375ZM5 10V11.25H8.75V10H5Z" fill="#2D3748"/>
<path fill-rule="evenodd" clip-rule="evenodd" d="M3.75 14.375C3.75 14.0298 4.02982 13.75 4.375 13.75H9.375C9.72018 13.75 10 14.0298 10 14.375V16.875C10 17.2202 9.72018 17.5 9.375 17.5H4.375C4.02982 17.5 3.75 17.2202 3.75 16.875V14.375ZM5 15V16.25H8.75V15H5Z" fill="#2D3748"/>
<path fill-rule="evenodd" clip-rule="evenodd" d="M11.25 9.375C11.25 9.02982 11.5298 8.75 11.875 8.75H15.625C15.9702 8.75 16.25 9.02982 16.25 9.375V16.875C16.25 17.2202 15.9702 17.5 15.625 17.5H11.875C11.5298 17.5 11.25 17.2202 11.25 16.875V9.375ZM12.5 10V16.25H15V10H12.5Z" fill="#2D3748"/>
</svg>
