<svg width="24" height="24" viewBox="0 0 24 24" fill="none" xmlns="http://www.w3.org/2000/svg">
<path fill-rule="evenodd" clip-rule="evenodd" d="M12 0.299927C5.4 0.299927 0 5.69993 0 12.2999C0 17.5499 3.45 22.0499 8.25 23.6999C8.85 23.8499 9 23.3999 9 23.0999C9 22.7999 9 22.0499 9 20.9999C5.7 21.7499 4.95 19.4999 4.95 19.4999C4.35 18.1499 3.6 17.6999 3.6 17.6999C2.55 16.9499 3.75 16.9499 3.75 16.9499C4.95 17.0999 5.55 18.1499 5.55 18.1499C6.6 20.0999 8.4 19.4999 9 19.1999C9.15 18.4499 9.45 17.8499 9.75 17.5499C7.05 17.2499 4.35 16.1999 4.35 11.5499C4.35 10.1999 4.8 9.14993 5.55 8.39993C5.4 8.09993 4.95 6.89993 5.7 5.24993C5.7 5.24993 6.75 4.94993 9 6.44993C9.9 6.14993 10.95 5.99993 12 5.99993C13.05 5.99993 14.1 6.14993 15 6.44993C17.25 4.94993 18.3 5.24993 18.3 5.24993C18.9 6.89993 18.6 8.09993 18.45 8.39993C19.2 9.29993 19.65 10.3499 19.65 11.5499C19.65 16.1999 16.8 17.0999 14.1 17.3999C14.55 17.9999 15 18.7499 15 19.7999C15 21.4499 15 22.6499 15 23.0999C15 23.3999 15.15 23.8499 15.9 23.6999C20.7 22.0499 24.15 17.5499 24.15 12.2999C24 5.69993 18.6 0.299927 12 0.299927Z" fill="#718096"/>
</svg>
