<svg width="134" height="29" viewBox="0 0 134 29" fill="none" xmlns="http://www.w3.org/2000/svg">
<path d="M0.6 1.72L6.56 0.759998V6.96H13.72V11.92H6.56V19.32C6.56 20.5733 6.77333 21.5733 7.2 22.32C7.65333 23.0667 8.54667 23.44 9.88 23.44C10.52 23.44 11.1733 23.3867 11.84 23.28C12.5333 23.1467 13.16 22.9733 13.72 22.76L14.56 27.4C13.84 27.6933 13.04 27.9467 12.16 28.16C11.28 28.3733 10.2 28.48 8.92 28.48C7.29333 28.48 5.94667 28.2667 4.88 27.84C3.81333 27.3867 2.96 26.7733 2.32 26C1.68 25.2 1.22667 24.24 0.96 23.12C0.72 22 0.6 20.76 0.6 19.4V1.72ZM25.8322 23.84C26.4189 23.84 26.9789 23.8267 27.5122 23.8C28.0455 23.7733 28.4722 23.7333 28.7922 23.68V19.16C28.5522 19.1067 28.1922 19.0533 27.7122 19C27.2322 18.9467 26.7922 18.92 26.3922 18.92C25.8322 18.92 25.2989 18.96 24.7922 19.04C24.3122 19.0933 23.8855 19.2133 23.5122 19.4C23.1389 19.5867 22.8455 19.84 22.6322 20.16C22.4189 20.48 22.3122 20.88 22.3122 21.36C22.3122 22.2933 22.6189 22.9467 23.2322 23.32C23.8722 23.6667 24.7389 23.84 25.8322 23.84ZM25.3522 6.4C27.1122 6.4 28.5789 6.6 29.7522 7C30.9255 7.4 31.8589 7.97333 32.5522 8.72C33.2722 9.46667 33.7789 10.3733 34.0722 11.44C34.3655 12.5067 34.5122 13.6933 34.5122 15V27.4C33.6589 27.5867 32.4722 27.8 30.9522 28.04C29.4322 28.3067 27.5922 28.44 25.4322 28.44C24.0722 28.44 22.8322 28.32 21.7122 28.08C20.6189 27.84 19.6722 27.4533 18.8722 26.92C18.0722 26.36 17.4589 25.64 17.0322 24.76C16.6055 23.88 16.3922 22.8 16.3922 21.52C16.3922 20.2933 16.6322 19.2533 17.1122 18.4C17.6189 17.5467 18.2855 16.8667 19.1122 16.36C19.9389 15.8533 20.8855 15.4933 21.9522 15.28C23.0189 15.04 24.1255 14.92 25.2722 14.92C26.0455 14.92 26.7255 14.96 27.3122 15.04C27.9255 15.0933 28.4189 15.1733 28.7922 15.28V14.72C28.7922 13.7067 28.4855 12.8933 27.8722 12.28C27.2589 11.6667 26.1922 11.36 24.6722 11.36C23.6589 11.36 22.6589 11.44 21.6722 11.6C20.6855 11.7333 19.8322 11.9333 19.1122 12.2L18.3522 7.4C18.6989 7.29333 19.1255 7.18667 19.6322 7.08C20.1655 6.94667 20.7389 6.84 21.3522 6.76C21.9655 6.65333 22.6055 6.57333 23.2722 6.52C23.9655 6.44 24.6589 6.4 25.3522 6.4ZM48.2616 13.36L52.4216 6.96H58.5816L51.3816 17.08C52.9816 19.08 54.4349 21.0267 55.7416 22.92C57.0482 24.8133 58.0882 26.5067 58.8616 28H52.4616C52.2482 27.6 51.9816 27.1067 51.6616 26.52C51.3416 25.9067 50.9816 25.28 50.5816 24.64C50.1816 23.9733 49.7549 23.32 49.3016 22.68C48.8749 22.0133 48.4482 21.4133 48.0216 20.88C47.6216 21.3867 47.2082 21.9467 46.7816 22.56C46.3816 23.1733 45.9949 23.8 45.6216 24.44C45.2482 25.0533 44.8749 25.6667 44.5016 26.28C44.1549 26.8933 43.8482 27.4667 43.5816 28H37.5016C37.8216 27.3333 38.2616 26.5467 38.8216 25.64C39.3816 24.7333 39.9816 23.8 40.6216 22.84C41.2882 21.8533 41.9816 20.88 42.7016 19.92C43.4216 18.9333 44.1282 18.0133 44.8216 17.16C43.6216 15.48 42.4216 13.7867 41.2216 12.08C40.0216 10.3467 38.8349 8.64 37.6616 6.96H44.1016L48.2616 13.36Z" fill="#6B46C1"/>
<path d="M61.05 17.64C61.05 15.7733 61.33 14.1467 61.89 12.76C62.4767 11.3467 63.2367 10.1733 64.17 9.24C65.1033 8.30667 66.17 7.6 67.37 7.12C68.5967 6.64 69.85 6.4 71.13 6.4C74.1167 6.4 76.4767 7.32 78.21 9.16C79.9433 10.9733 80.81 13.6533 80.81 17.2C80.81 17.5467 80.7967 17.9333 80.77 18.36C80.7433 18.76 80.7167 19.12 80.69 19.44H67.17C67.3033 20.6667 67.8767 21.64 68.89 22.36C69.9033 23.08 71.2633 23.44 72.97 23.44C74.0633 23.44 75.13 23.3467 76.17 23.16C77.2367 22.9467 78.1033 22.6933 78.77 22.4L79.57 27.24C79.25 27.4 78.8233 27.56 78.29 27.72C77.7567 27.88 77.1567 28.0133 76.49 28.12C75.85 28.2533 75.1567 28.36 74.41 28.44C73.6633 28.52 72.9167 28.56 72.17 28.56C70.2767 28.56 68.6233 28.28 67.21 27.72C65.8233 27.16 64.6633 26.4 63.73 25.44C62.8233 24.4533 62.1433 23.2933 61.69 21.96C61.2633 20.6267 61.05 19.1867 61.05 17.64ZM75.05 15.36C75.0233 14.8533 74.93 14.36 74.77 13.88C74.6367 13.4 74.41 12.9733 74.09 12.6C73.7967 12.2267 73.41 11.92 72.93 11.68C72.4767 11.44 71.9033 11.32 71.21 11.32C70.5433 11.32 69.97 11.44 69.49 11.68C69.01 11.8933 68.61 12.1867 68.29 12.56C67.97 12.9333 67.7167 13.3733 67.53 13.88C67.37 14.36 67.25 14.8533 67.17 15.36H75.05ZM94.9694 16.84C94.9694 14.92 94.716 13.56 94.2094 12.76C93.7294 11.96 92.8894 11.56 91.6894 11.56C91.316 11.56 90.9294 11.5867 90.5294 11.64C90.1294 11.6667 89.7427 11.7067 89.3694 11.76V28H83.4094V7.68C83.916 7.54667 84.5027 7.41333 85.1694 7.28C85.8627 7.12 86.5827 6.98667 87.3294 6.88C88.1027 6.74667 88.8894 6.65333 89.6894 6.6C90.4894 6.52 91.276 6.48 92.0494 6.48C93.5694 6.48 94.796 6.68 95.7294 7.08C96.6894 7.45333 97.476 7.90667 98.0894 8.44C98.9427 7.82667 99.916 7.34667 101.009 7C102.129 6.65333 103.156 6.48 104.089 6.48C105.769 6.48 107.143 6.72 108.209 7.2C109.303 7.65333 110.169 8.30667 110.809 9.16C111.449 10.0133 111.889 11.0267 112.129 12.2C112.369 13.3733 112.489 14.68 112.489 16.12V28H106.529V16.84C106.529 14.92 106.276 13.56 105.769 12.76C105.289 11.96 104.449 11.56 103.249 11.56C102.929 11.56 102.476 11.64 101.889 11.8C101.329 11.96 100.863 12.16 100.489 12.4C100.676 13.0133 100.796 13.6667 100.849 14.36C100.903 15.0267 100.929 15.7467 100.929 16.52V28H94.9694V16.84ZM133.862 27.28C132.848 27.5733 131.542 27.84 129.942 28.08C128.342 28.3467 126.662 28.48 124.902 28.48C123.115 28.48 121.622 28.24 120.422 27.76C119.248 27.28 118.315 26.6133 117.622 25.76C116.928 24.88 116.435 23.84 116.142 22.64C115.848 21.44 115.702 20.12 115.702 18.68V6.96H121.662V17.96C121.662 19.88 121.915 21.2667 122.422 22.12C122.928 22.9733 123.875 23.4 125.262 23.4C125.688 23.4 126.142 23.3867 126.622 23.36C127.102 23.3067 127.528 23.2533 127.902 23.2V6.96H133.862V27.28Z" fill="#ECC94B"/>
</svg>
